<svg width="21" height="20" viewBox="0 0 21 20" fill="none" xmlns="http://www.w3.org/2000/svg">
<path d="M10.5 0.5C4.98603 0.5 0.500027 4.53733 0.500027 9.5C0.500027 11.235 1.04903 12.9153 2.08936 14.368C1.89236 16.547 1.36436 18.1647 0.597694 18.931C0.49636 19.0323 0.471027 19.1873 0.535027 19.3153C0.592027 19.4297 0.70836 19.5 0.83336 19.5C0.848694 19.5 0.86436 19.499 0.880027 19.4967C1.01503 19.4777 4.15103 19.026 6.41903 17.7173C7.70736 18.237 9.07936 18.5 10.5 18.5C16.014 18.5 20.5 14.4627 20.5 9.5C20.5 4.53733 16.014 0.5 10.5 0.5Z" fill="#5D5F63"/>
</svg>
