<svg width="137" height="135" viewBox="0 0 137 135" fill="none" xmlns="http://www.w3.org/2000/svg">
<path d="M68.648 0C31.634 0 0.369141 30.9083 0.369141 67.5C0.369141 104.092 31.634 135 68.648 135C105.662 135 136.927 104.092 136.927 67.5C136.927 30.9083 105.662 0 68.648 0ZM68.648 33.75C80.4397 33.75 89.1316 42.336 89.1316 54C89.1316 65.664 80.4397 74.25 68.648 74.25C56.8631 74.25 48.1643 65.664 48.1643 54C48.1643 42.336 56.8631 33.75 68.648 33.75ZM33.7848 99.711C39.9094 90.801 50.1239 84.861 61.8201 84.861H75.4759C87.1789 84.861 97.3866 90.801 103.511 99.711C94.7851 108.945 82.4062 114.75 68.648 114.75C54.8898 114.75 42.5108 108.945 33.7848 99.711Z" fill="#60616D"/>
</svg>
