<svg width="18" height="17" viewBox="0 0 18 17" fill="none" xmlns="http://www.w3.org/2000/svg">
<g clip-path="url(#clip0_390_1167)">
<path fill-rule="evenodd" clip-rule="evenodd" d="M16.9438 9.85804L13.1587 9.85804C12.8529 9.85804 12.6025 9.5682 12.6025 9.2127L12.6025 0.643843C12.6025 0.289942 12.8529 -0.0015049 13.1587 -0.0015049L16.9438 -0.0015049C17.2496 -0.0015049 17.5 0.288342 17.5 0.643843L17.5 9.2127C17.5 9.5682 17.2496 9.85804 16.9438 9.85804ZM8.77588 16.2859C8.48258 18.0073 6.04769 16.422 5.88721 13.6469C5.83878 12.7981 5.91487 11.8101 6.09472 10.7068L2.61531 10.7068C1.16821 10.6411 -0.0948925 9.44169 0.797441 7.47202C0.594072 6.6137 0.563637 5.60645 1.11564 5.20931C1.04646 3.85456 1.3702 3.01545 1.97615 2.35249C2.01627 1.67511 2.14079 1.07301 2.42301 0.610214C2.89062 -0.153633 3.26969 0.0289211 4.00569 0.0289211L9.88127 0.0289211C10.8123 0.0289211 11.3201 0.325172 11.9288 1.20912L11.9288 8.78353C10.1773 9.3312 9.24625 12.1047 8.77588 13.9255L8.77588 16.2859Z" fill="#5D5F63"/>
</g>
<defs>
<clipPath id="clip0_390_1167">
<rect width="17" height="17" fill="white" transform="translate(17.5 17) rotate(-180)"/>
</clipPath>
</defs>
</svg>
