<svg width="19" height="15" viewBox="0 0 19 15" fill="none" xmlns="http://www.w3.org/2000/svg">
<g clip-path="url(#clip0_390_1178)">
<path d="M10.3174 6.92749V3.1546C11.2697 3.4173 11.9538 4.12466 11.9538 4.95429C11.9538 5.30574 12.3202 5.59067 12.772 5.59067C13.2239 5.59067 13.5902 5.30574 13.5902 4.95429C13.5902 3.41768 12.1825 2.13202 10.3174 1.8364V1.13638C10.3174 0.784929 9.95109 0.5 9.49922 0.5C9.04736 0.5 8.68102 0.784929 8.68102 1.13638V1.8364C6.81595 2.13202 5.4082 3.41768 5.4082 4.95429C5.4082 6.49089 6.81595 7.77651 8.68102 8.07217V11.845C7.72869 11.5823 7.04461 10.875 7.04461 10.0453C7.04461 9.69388 6.67827 9.40895 6.22641 9.40895C5.77454 9.40895 5.4082 9.69388 5.4082 10.0453C5.4082 11.5819 6.81595 12.8676 8.68102 13.1632V13.8636C8.68102 14.2151 9.04736 14.5 9.49922 14.5C9.95109 14.5 10.3174 14.2151 10.3174 13.8636V13.1632C12.1825 12.8676 13.5902 11.5819 13.5902 10.0453C13.5902 8.50873 12.1824 7.22311 10.3174 6.92749ZM7.04461 4.95429C7.04461 4.12466 7.72869 3.4173 8.68102 3.1546V6.75397C7.72869 6.49127 7.04461 5.78391 7.04461 4.95429ZM10.3174 11.845V8.24565C11.2697 8.50835 11.9538 9.2157 11.9538 10.0453C11.9538 10.875 11.2697 11.5823 10.3174 11.845Z" fill="#5D5F63"/>
</g>
<defs>
<clipPath id="clip0_390_1178">
<rect width="18" height="14" fill="white" transform="translate(0.5 0.5)"/>
</clipPath>
</defs>
</svg>
