<svg width="20" height="20" viewBox="0 0 20 20" fill="none" xmlns="http://www.w3.org/2000/svg">
<path d="M1.42871 9.99999C1.42871 5.26642 5.26657 1.42856 10.0001 1.42856C14.7337 1.42856 18.5716 5.26642 18.5716 9.99999C18.5716 14.7336 14.7337 18.5714 10.0001 18.5714C5.26657 18.5714 1.42871 14.7336 1.42871 9.99999ZM12.5001 9.2857C12.7843 9.2857 13.0568 9.17282 13.2578 8.97189C13.4587 8.77096 13.5716 8.49843 13.5716 8.21427C13.5716 7.93011 13.4587 7.65759 13.2578 7.45666C13.0568 7.25573 12.7843 7.14284 12.5001 7.14284C12.216 7.14284 11.9435 7.25573 11.7425 7.45666C11.5416 7.65759 11.4287 7.93011 11.4287 8.21427C11.4287 8.49843 11.5416 8.77096 11.7425 8.97189C11.9435 9.17282 12.216 9.2857 12.5001 9.2857ZM8.57157 8.21427C8.57157 7.93011 8.45869 7.65759 8.25775 7.45666C8.05682 7.25573 7.7843 7.14284 7.50014 7.14284C7.21598 7.14284 6.94346 7.25573 6.74253 7.45666C6.54159 7.65759 6.42871 7.93011 6.42871 8.21427C6.42871 8.49843 6.54159 8.77096 6.74253 8.97189C6.94346 9.17282 7.21598 9.2857 7.50014 9.2857C7.7843 9.2857 8.05682 9.17282 8.25775 8.97189C8.45869 8.77096 8.57157 8.49843 8.57157 8.21427ZM5.94871 12.2357C5.83126 12.3156 5.75038 12.439 5.72385 12.5786C5.69733 12.7181 5.72734 12.8625 5.80728 12.98V12.9807L5.80871 12.9821L5.81014 12.9843L5.81585 12.9914C5.83811 13.0232 5.86122 13.0544 5.88514 13.085C5.93157 13.1443 5.998 13.225 6.08514 13.32C6.3199 13.5744 6.58006 13.8042 6.86157 14.0057C7.55443 14.505 8.59871 15 10.0001 15C11.4016 15 12.4466 14.5043 13.1387 14.0064C13.4205 13.8044 13.6808 13.5742 13.9159 13.3193C14.0055 13.2217 14.0901 13.1197 14.1694 13.0136L14.1851 12.9921L14.1901 12.985L14.1916 12.9821L14.1923 12.9807L14.193 12.98C14.2731 12.8626 14.3034 12.7182 14.277 12.5786C14.2507 12.439 14.17 12.3155 14.0526 12.2353C13.9353 12.1552 13.7909 12.125 13.6512 12.1513C13.5116 12.1776 13.3881 12.2583 13.308 12.3757L13.303 12.3828C13.2476 12.4563 13.1887 12.5271 13.1266 12.595C12.9409 12.7958 12.7353 12.9772 12.513 13.1364C11.9644 13.5314 11.1344 13.9286 10.0001 13.9286C8.86657 13.9286 8.03585 13.5314 7.48728 13.1364C7.2652 12.9774 7.05985 12.7963 6.87443 12.5957C6.81228 12.5278 6.75341 12.457 6.698 12.3836L6.69157 12.375C6.61131 12.2583 6.4881 12.1781 6.34889 12.152C6.20968 12.1259 6.0658 12.156 5.94871 12.2357Z" fill="#AAAAAA"/>
</svg>
