<svg width="18" height="20" viewBox="0 0 18 20" fill="none" xmlns="http://www.w3.org/2000/svg">
<g clip-path="url(#clip0_106_1403)">
<path d="M16.25 4.96484H13.9754L14.3578 2.67031C14.4713 1.98906 14.0111 1.34531 13.3304 1.23164C12.6457 1.11934 12.0054 1.57895 11.8918 2.25898L11.4414 4.96484H7.72656L8.10895 2.67031C8.22246 1.98906 7.76227 1.34531 7.0816 1.23164C6.39684 1.11934 5.7566 1.57895 5.64293 2.25898L5.19141 4.96484H2.5C1.80977 4.96484 1.25 5.52461 1.25 6.21484C1.25 6.94141 1.80977 7.46484 2.5 7.46484H4.77461L3.94141 12.4648H1.25C0.559766 12.4648 0 13.0246 0 13.7148C0 14.4051 0.559766 14.9297 1.25 14.9297H3.52461L3.14223 17.2242C3.02871 17.9055 3.48891 18.5492 4.16957 18.6629C4.23828 18.7461 4.30859 18.75 4.375 18.75C4.975 18.75 5.50469 18.3168 5.60664 17.7059L6.05742 15H9.77305L9.39066 17.2945C9.27715 17.9758 9.73734 18.6195 10.418 18.7332C10.4883 18.7461 10.5586 18.75 10.625 18.75C11.225 18.75 11.7547 18.3168 11.8566 17.7059L12.3074 15H15C15.6902 15 16.25 14.4402 16.25 13.7852C16.25 13.0949 15.6902 12.5352 15 12.5352H12.7254L13.5586 7.53516H16.25C16.9402 7.53516 17.5 6.97578 17.5 6.32031C17.5 5.55859 16.9414 4.96484 16.25 4.96484ZM10.1914 12.4648H6.47656L7.30859 7.46484H11.0242L10.1914 12.4648Z" fill="#AAAAAA"/>
</g>
<defs>
<clipPath id="clip0_106_1403">
<rect width="17.5" height="20" fill="white"/>
</clipPath>
</defs>
</svg>
