<svg width="20" height="20" viewBox="0 0 20 20" fill="none" xmlns="http://www.w3.org/2000/svg">
<g clip-path="url(#clip0_390_1346)">
<path d="M19.6488 7.86157L17.1463 5.82204V2.56025C17.1463 2.19294 16.8474 1.89407 16.4801 1.89407H14.9055C14.5382 1.89407 14.2393 2.19294 14.2393 2.56025V3.45274L10.8955 0.72753C10.6537 0.530462 10.3349 0.421875 9.99789 0.421875C9.66226 0.421875 9.34497 0.529796 9.10442 0.725834L0.351262 7.86151C-0.046447 8.18558 -0.0225857 8.46785 0.0270144 8.60727C0.0764932 8.74638 0.235831 8.97978 0.746729 8.97978H1.94531V18.3636C1.94531 19.0333 2.48867 19.5781 3.15654 19.5781H6.94164C7.60389 19.5781 8.1226 19.0446 8.1226 18.3636V14.5155C8.1226 14.1857 8.42571 13.8853 8.7585 13.8853H11.3021C11.6193 13.8853 11.8774 14.168 11.8774 14.5155V18.3636C11.8774 19.0219 12.446 19.5781 13.1189 19.5781H16.8435C17.5114 19.5781 18.0547 19.0333 18.0547 18.3636V8.97978H19.2533C19.7642 8.97978 19.9235 8.74638 19.973 8.60727C20.0226 8.46785 20.0465 8.18558 19.6488 7.86157Z" fill="#4385F5"/>
</g>
<defs>
<clipPath id="clip0_390_1346">
<rect width="20" height="20" fill="white"/>
</clipPath>
</defs>
</svg>
