<svg width="21" height="20" viewBox="0 0 21 20" fill="none" xmlns="http://www.w3.org/2000/svg">
<path fill-rule="evenodd" clip-rule="evenodd" d="M1.1543 8.40247H5.60742C5.96712 8.40247 6.26172 8.74347 6.26172 9.16171V19.2427C6.26172 19.6591 5.96712 20.0019 5.60742 20.0019H1.1543C0.794596 20.0019 0.5 19.6609 0.5 19.2427V9.16171C0.5 8.74347 0.794596 8.40247 1.1543 8.40247ZM10.7637 0.840304C11.1087 -1.18494 13.9733 0.680169 14.1621 3.94505C14.2191 4.94354 14.1296 6.10594 13.918 7.40398H18.0114C19.7139 7.48122 21.1999 8.8923 20.1501 11.2096C20.3893 12.2194 20.4251 13.4044 19.7757 13.8716C19.8571 15.4654 19.4762 16.4526 18.7633 17.2325C18.7161 18.0294 18.5697 18.7378 18.2376 19.2823C17.6875 20.1809 17.2415 19.9661 16.3757 19.9661H9.46322C8.36784 19.9661 7.77051 19.6176 7.05436 18.5777V9.6666C9.11491 9.02229 10.2103 5.75929 10.7637 3.61724V0.840304Z" fill="#5D5F63"/>
</svg>
