<svg width="158" height="52" viewBox="0 0 158 52" fill="none" xmlns="http://www.w3.org/2000/svg">
<path d="M29.9418 13.4736V38H23.9674V23.2911L18.4822 38H13.6607L8.14054 23.2562V38H2.16615V13.4736H9.22362L16.1064 30.4534L22.9193 13.4736H29.9418ZM33.0502 28.2174C33.0502 26.2143 33.4229 24.4557 34.1682 22.9417C34.9369 21.4278 35.9733 20.2632 37.2777 19.4479C38.5821 18.6327 40.0378 18.2251 41.6449 18.2251C43.0192 18.2251 44.2187 18.5046 45.2436 19.0636C46.2917 19.6226 47.0953 20.3563 47.6543 21.2647V18.5046H53.6287V38H47.6543V35.2399C47.072 36.1483 46.2568 36.882 45.2086 37.441C44.1838 38 42.9842 38.2795 41.61 38.2795C40.0262 38.2795 38.5821 37.8719 37.2777 37.0567C35.9733 36.2182 34.9369 35.0419 34.1682 33.5279C33.4229 31.9907 33.0502 30.2205 33.0502 28.2174ZM47.6543 28.2523C47.6543 26.7616 47.235 25.5854 46.3965 24.7236C45.5813 23.8618 44.5797 23.4309 43.3918 23.4309C42.204 23.4309 41.1908 23.8618 40.3522 24.7236C39.537 25.5621 39.1294 26.7267 39.1294 28.2174C39.1294 29.7081 39.537 30.8959 40.3522 31.781C41.1908 32.6428 42.204 33.0737 43.3918 33.0737C44.5797 33.0737 45.5813 32.6428 46.3965 31.781C47.235 30.9192 47.6543 29.743 47.6543 28.2523ZM63.5409 33.0737H71.9959V38H56.8678V33.2484L64.9734 23.4309H56.9377V18.5046H71.8212V23.2562L63.5409 33.0737ZM74.0955 28.2174C74.0955 26.2143 74.4681 24.4557 75.2135 22.9417C75.9821 21.4278 77.0186 20.2632 78.323 19.4479C79.6273 18.6327 81.0831 18.2251 82.6902 18.2251C84.0644 18.2251 85.264 18.5046 86.2888 19.0636C87.337 19.6226 88.1405 20.3563 88.6995 21.2647V18.5046H94.6739V38H88.6995V35.2399C88.1172 36.1483 87.302 36.882 86.2539 37.441C85.229 38 84.0295 38.2795 82.6553 38.2795C81.0714 38.2795 79.6273 37.8719 78.323 37.0567C77.0186 36.2182 75.9821 35.0419 75.2135 33.5279C74.4681 31.9907 74.0955 30.2205 74.0955 28.2174ZM88.6995 28.2523C88.6995 26.7616 88.2803 25.5854 87.4418 24.7236C86.6266 23.8618 85.625 23.4309 84.4371 23.4309C83.2492 23.4309 82.236 23.8618 81.3975 24.7236C80.5823 25.5621 80.1747 26.7267 80.1747 28.2174C80.1747 29.7081 80.5823 30.8959 81.3975 31.781C82.236 32.6428 83.2492 33.0737 84.4371 33.0737C85.625 33.0737 86.6266 32.6428 87.4418 31.781C88.2803 30.9192 88.6995 29.743 88.6995 28.2523ZM104.971 21.7539C105.669 20.6824 106.543 19.8439 107.591 19.2383C108.639 18.6094 109.804 18.295 111.085 18.295V24.6188H109.443C107.952 24.6188 106.834 24.9449 106.089 25.597C105.343 26.2259 104.971 27.3439 104.971 28.9511V38H98.9961V18.5046H104.971V21.7539ZM133.855 18.5046L121.627 47.2586H115.198L119.67 37.3362L111.739 18.5046H118.412L122.919 30.698L127.391 18.5046H133.855ZM147.894 18.295C150.177 18.295 151.994 19.0403 153.345 20.531C154.719 21.9984 155.406 24.0248 155.406 26.6102V38H149.466V27.4138C149.466 26.1095 149.129 25.0962 148.453 24.3742C147.778 23.6521 146.869 23.2911 145.728 23.2911C144.587 23.2911 143.678 23.6521 143.003 24.3742C142.327 25.0962 141.99 26.1095 141.99 27.4138V38H136.015V18.5046H141.99V21.09C142.595 20.2282 143.411 19.5528 144.435 19.0636C145.46 18.5512 146.613 18.295 147.894 18.295Z" fill="#60616D"/>
<circle cx="78.5945" cy="12.2615" r="3.99682" fill="#4385F5"/>
<circle cx="91.5066" cy="12.2615" r="3.99682" fill="#4385F5"/>
</svg>
