<svg width="29" height="29" viewBox="0 0 29 29" fill="none" xmlns="http://www.w3.org/2000/svg">
<path d="M24.3112 20.5829L21.7378 16.9417V9.82806C21.7378 6.19728 19.0505 3.18269 15.5605 2.66783V1.06099C15.5605 0.475045 15.0855 0 14.4996 0C13.9137 0 13.4386 0.475045 13.4386 1.06099V2.66777C9.94864 3.18264 7.26133 6.19722 7.26133 9.828V16.9417L4.68797 20.5829C4.19259 21.2837 4.69426 22.2562 5.55435 22.2562H23.4449C24.3031 22.2563 24.8077 21.2852 24.3112 20.5829Z" fill="#AAAAAA"/>
<path d="M14.4989 23.0137C12.8485 23.0137 11.5059 24.3563 11.5059 26.0067C11.5059 27.6571 12.8486 28.9998 14.4989 28.9998C16.1493 28.9998 17.4919 27.6571 17.4919 26.0068C17.4919 24.3564 16.1493 23.0137 14.4989 23.0137Z" fill="#AAAAAA"/>
</svg>
