<svg width="28" height="28" viewBox="0 0 28 28" fill="none" xmlns="http://www.w3.org/2000/svg">
<g clip-path="url(#clip0_120_639)" filter="url(#filter0_d_120_639)">
<path fill-rule="evenodd" clip-rule="evenodd" d="M19.1725 6.95497C19.477 6.95538 19.7745 7.07249 20.0275 7.29149C20.2805 7.51049 20.4776 7.82154 20.5939 8.18534C20.7102 8.54914 20.7404 8.94934 20.6808 9.33537C20.6212 9.7214 20.4745 10.0759 20.2591 10.3541C20.0437 10.6323 19.7693 10.8217 19.4707 10.8983C19.1721 10.975 18.8626 10.9354 18.5813 10.7847C18.3001 10.634 18.0597 10.3788 17.8906 10.0515C17.7215 9.72416 17.6312 9.33935 17.6312 8.94571C17.631 8.68402 17.6707 8.42486 17.7481 8.18307C17.8255 7.94128 17.9391 7.72162 18.0823 7.53668C18.2255 7.35174 18.3955 7.20516 18.5826 7.10533C18.7697 7.00551 18.9701 6.95441 19.1725 6.95497ZM20.3916 2.27904V1.64773H5.27931V15.6397H6.00034V17.2938H5.12143C4.82504 17.2946 4.54052 17.1432 4.33041 16.8729C4.22666 16.7391 4.14446 16.5799 4.08859 16.4047C4.03271 16.2296 4.00427 16.0418 4.00489 15.8523V1.44992C4.00532 1.06663 4.12293 0.699117 4.33209 0.427505C4.54125 0.155894 4.82499 0.00222153 5.12143 0L20.5495 0C20.8468 0.000556656 21.1318 0.153494 21.342 0.425285C21.5522 0.697077 21.6705 1.06555 21.6709 1.44992V2.27904H20.3916ZM21.8825 18.3481L19.2132 12.8367C19.1582 12.7232 19.0817 12.6297 18.991 12.5648C18.9004 12.5 18.7985 12.466 18.6948 12.466C18.5912 12.466 18.4893 12.5 18.3986 12.5648C18.308 12.6297 18.2315 12.7232 18.1764 12.8367L16.9167 15.4609L18.2871 18.3481H17.724L13.9805 10.6292C13.9164 10.4975 13.8276 10.3889 13.7223 10.3137C13.617 10.2384 13.4986 10.1989 13.3783 10.1989C13.2579 10.1989 13.1396 10.2384 13.0342 10.3137C12.9289 10.3889 12.8401 10.4975 12.7761 10.6292L9.12208 18.3481H8.60939V5.64604H22.7175V18.3481H21.8825ZM22.8802 19.9916H8.45151C8.15463 19.9905 7.87014 19.8377 7.66007 19.5664C7.44999 19.2952 7.33138 18.9276 7.33009 18.5438V5.44192C7.33223 5.05882 7.45122 4.69228 7.66121 4.42197C7.87119 4.15166 8.15519 3.99942 8.45151 3.99832H22.8802C23.1769 3.99943 23.4613 4.15232 23.6711 4.4236C23.8809 4.69487 23.9992 5.06249 24 5.44613V18.5564C23.9962 18.9377 23.8767 19.3017 23.6672 19.5702C23.4578 19.8386 23.1751 19.99 22.8802 19.9916Z" fill="#AAAAAA"/>
</g>
<defs>
<filter id="filter0_d_120_639" x="0" y="0" width="28" height="28" filterUnits="userSpaceOnUse" color-interpolation-filters="sRGB">
<feFlood flood-opacity="0" result="BackgroundImageFix"/>
<feColorMatrix in="SourceAlpha" type="matrix" values="0 0 0 0 0 0 0 0 0 0 0 0 0 0 0 0 0 0 127 0" result="hardAlpha"/>
<feOffset dy="4"/>
<feGaussianBlur stdDeviation="2"/>
<feComposite in2="hardAlpha" operator="out"/>
<feColorMatrix type="matrix" values="0 0 0 0 0 0 0 0 0 0 0 0 0 0 0 0 0 0 0.25 0"/>
<feBlend mode="normal" in2="BackgroundImageFix" result="effect1_dropShadow_120_639"/>
<feBlend mode="normal" in="SourceGraphic" in2="effect1_dropShadow_120_639" result="shape"/>
</filter>
<clipPath id="clip0_120_639">
<rect width="20" height="20" fill="white" transform="translate(4)"/>
</clipPath>
</defs>
</svg>
