<svg width="24" height="16" viewBox="0 0 24 16" fill="none" xmlns="http://www.w3.org/2000/svg">
<path d="M23.4922 11.0781C23.3477 10.7266 23.0039 10.4648 22.625 10.4648H20.75V4.875C20.75 3.15234 19.3477 1.75 17.625 1.75H12.625C11.9348 1.75 11.375 2.30898 11.375 3C11.375 3.69102 11.9348 4.25 12.625 4.25H17.625C17.9688 4.25 18.25 4.53125 18.25 4.875V10.4648H16.375C16.1896 10.4649 16.0084 10.52 15.8542 10.623C15.7001 10.7261 15.5799 10.8726 15.509 11.0439C15.4381 11.2152 15.4195 11.4037 15.4557 11.5856C15.4919 11.7674 15.5812 11.9345 15.7123 12.0656L18.8373 15.1914C19.0196 15.4102 19.2617 15.5 19.5 15.5C19.7383 15.5 19.9797 15.4084 20.1629 15.2254L23.2879 12.0996C23.5547 11.832 23.6368 11.4297 23.4922 11.0781ZM11.375 11.75H6.37503C6.03128 11.75 5.75003 11.4688 5.75003 11.125V5.5H7.62503C7.81046 5.49991 7.9917 5.44486 8.14584 5.3418C8.29998 5.23873 8.42011 5.09228 8.49105 4.92096C8.56198 4.74964 8.58053 4.56113 8.54435 4.37927C8.50818 4.19741 8.4189 4.03035 8.2878 3.89922L5.1628 0.773438C4.9805 0.591406 4.73831 0.5 4.50003 0.5C4.26175 0.5 4.01956 0.591406 3.83597 0.774609L0.710969 3.90039C0.444172 4.16797 0.363703 4.57031 0.509016 4.92188C0.654328 5.27344 0.996125 5.5 1.37503 5.5H3.25003V11.125C3.25003 12.8477 4.65238 14.25 6.37503 14.25H11.375C12.0653 14.25 12.625 13.691 12.625 13C12.625 12.309 12.0664 11.75 11.375 11.75Z" fill="#5D5F63"/>
</svg>
